<svg xmlns="http://www.w3.org/2000/svg" version="1.1" xmlns:xlink="http://www.w3.org/1999/xlink" xmlns:svgjs="http://svgjs.com/svgjs" width="2560" height="250" preserveAspectRatio="none" viewBox="0 0 2560 250"><g mask="url(&quot;#SvgjsMask1018&quot;)" fill="none"><path d="M64 250L314 0L939.5 0L689.5 250z" fill="url(#SvgjsLinearGradient1019)"></path><path d="M481.40000000000003 250L731.4000000000001 0L1140.9 0L890.9000000000001 250z" fill="url(#SvgjsLinearGradient1019)"></path><path d="M878.8000000000001 250L1128.8000000000002 0L1637.3000000000002 0L1387.3000000000002 250z" fill="url(#SvgjsLinearGradient1019)"></path><path d="M1273.2 250L1523.2 0L2096.2 0L1846.2 250z" fill="url(#SvgjsLinearGradient1019)"></path><path d="M2491 250L2241 0L1621.5 0L1871.5 250z" fill="url(#SvgjsLinearGradient1020)"></path><path d="M2060.6 250L1810.6 0L1224.1 0L1474.1 250z" fill="url(#SvgjsLinearGradient1020)"></path><path d="M1711.1999999999998 250L1461.1999999999998 0L1176.1999999999998 0L1426.1999999999998 250z" fill="url(#SvgjsLinearGradient1020)"></path><path d="M1250.8 250L1000.8 0L513.3 0L763.3 250z" fill="url(#SvgjsLinearGradient1020)"></path><path d="M2390.41744538075 250L2560 80.41744538075L2560 250z" fill="url(#SvgjsLinearGradient1019)"></path><path d="M0 250L169.58255461925 250L 0 80.41744538075z" fill="url(#SvgjsLinearGradient1020)"></path></g><defs><mask id="SvgjsMask1018"><rect width="2560" height="250" fill="#ffffff"></rect></mask><linearGradient x1="0%" y1="100%" x2="100%" y2="0%" id="SvgjsLinearGradient1019"><stop stop-color="rgba(185, 168, 15, 0.2)" offset="0"></stop><stop stop-opacity="0" stop-color="rgba(185, 168, 15, 0.2)" offset="0.66"></stop></linearGradient><linearGradient x1="100%" y1="100%" x2="0%" y2="0%" id="SvgjsLinearGradient1020"><stop stop-color="rgba(185, 168, 15, 0.2)" offset="0"></stop><stop stop-opacity="0" stop-color="rgba(185, 168, 15, 0.2)" offset="0.66"></stop></linearGradient></defs></svg>